# Blender v2.82 (sub 7) OBJ File: 'hart.blend'
# www.blender.org
mtllib hart.mtl
o Hart_Circle
v -0.889791 0.321691 -0.000033
v -0.948568 0.116051 -0.000000
v -0.930673 -0.051346 0.000033
v -0.844754 -0.250808 0.000065
v -0.718056 -0.393363 0.000094
v -0.567318 -0.514568 0.000119
v -0.409188 -0.621787 0.000140
v -0.209926 -0.794641 0.000156
v -0.089590 -0.884516 0.000166
v 0.345888 -0.590137 0.000140
v 0.414343 -0.469730 0.000119
v 0.472768 -0.386769 0.000094
v 0.537484 -0.294326 0.000065
v 0.473806 0.619150 -0.000140
v -0.001319 0.221933 -0.000169
v -0.104096 0.289756 -0.000166
v -0.223114 0.367364 -0.000156
v -0.378857 0.521562 -0.000140
v -0.564681 0.560725 -0.000119
v -0.702231 0.517326 -0.000094
v -0.801235 0.444665 -0.000065
v 0.000000 -1.000000 0.000169
v 0.117284 -0.877922 0.000166
v 0.236302 -0.733978 0.000156
v 0.629996 -0.185858 0.000033
v 0.732292 -0.060662 0.000000
v 0.880560 0.133110 -0.000033
v 0.889591 0.233665 -0.000065
v 0.857844 0.422377 -0.000094
v 0.728206 0.580507 -0.000119
v 0.310150 0.623203 -0.000156
v 0.189814 0.566696 -0.000166
v -0.000000 0.000000 -0.000000
vt 0.000000 0.000000
vt 0.000000 0.000000
vt 0.000000 0.000000
vt 0.000000 0.000000
vt 0.000000 0.000000
vt 0.000000 0.000000
vt 0.000000 0.000000
vt 0.000000 0.000000
vt 0.000000 0.000000
vt 0.000000 0.000000
vt 0.000000 0.000000
vt 0.000000 0.000000
vt 0.000000 0.000000
vt 0.000000 0.000000
vt 0.000000 0.000000
vt 0.000000 0.000000
vt 0.000000 0.000000
vt 0.000000 0.000000
vt 0.000000 0.000000
vt 0.000000 0.000000
vt 0.000000 0.000000
vt 0.000000 0.000000
vt 0.000000 0.000000
vt 0.000000 0.000000
vt 0.000000 0.000000
vt 0.000000 0.000000
vt 0.000000 0.000000
vt 0.000000 0.000000
vt 0.000000 0.000000
vt 0.000000 0.000000
vt 0.000000 0.000000
vt 0.000000 0.000000
vt 0.000000 0.000000
vn -0.0000 -0.0002 -1.0000
vn -0.0001 -0.0002 -1.0000
vn -0.0005 -0.0008 -1.0000
vn -0.0006 -0.0008 -1.0000
vn 0.0000 -0.0003 -1.0000
vn -0.0002 -0.0002 -1.0000
vn -0.0013 -0.0012 -1.0000
vn 0.0001 -0.0003 -1.0000
vn 0.0001 -0.0002 -1.0000
vn -0.0002 -0.0004 -1.0000
vn 0.0003 -0.0004 -1.0000
vn -0.0001 -0.0003 -1.0000
vn 0.0014 -0.0008 -1.0000
usemtl None
s off
f 29/1/1 28/2/1 33/3/1
f 8/4/2 7/5/2 33/3/2
f 16/6/3 15/7/3 33/3/3
f 30/8/1 29/1/1 33/3/1
f 9/9/2 8/4/2 33/3/2
f 17/10/4 16/6/4 33/3/4
f 14/11/5 30/8/5 33/3/5
f 22/12/6 9/9/6 33/3/6
f 18/13/7 17/10/7 33/3/7
f 31/14/8 14/11/8 33/3/8
f 23/15/9 22/12/9 33/3/9
f 19/16/10 18/13/10 33/3/10
f 32/17/11 31/14/11 33/3/11
f 24/18/9 23/15/9 33/3/9
f 20/19/12 19/16/12 33/3/12
f 15/7/13 32/17/13 33/3/13
f 10/20/9 24/18/9 33/3/9
f 21/21/12 20/19/12 33/3/12
f 11/22/9 10/20/9 33/3/9
f 1/23/1 21/21/1 33/3/1
f 12/24/5 11/22/5 33/3/5
f 2/25/1 1/23/1 33/3/1
f 13/26/5 12/24/5 33/3/5
f 3/27/1 2/25/1 33/3/1
f 25/28/5 13/26/5 33/3/5
f 4/29/1 3/27/1 33/3/1
f 26/30/1 25/28/1 33/3/1
f 5/31/1 4/29/1 33/3/1
f 27/32/1 26/30/1 33/3/1
f 6/33/1 5/31/1 33/3/1
f 28/2/5 27/32/5 33/3/5
f 7/5/1 6/33/1 33/3/1
